<?xml version="1.0" encoding="UTF-8"?>
<svg width="36px" height="36px" viewBox="0 0 36 36" version="1.1" xmlns="http://www.w3.org/2000/svg" xmlns:xlink="http://www.w3.org/1999/xlink">
    <title>messageicon备份 23</title>
    <g id="页面-1" stroke="none" stroke-width="1" fill="none" fill-rule="evenodd">
        <g id="创建群组-添加成员" transform="translate(-22.000000, -105.000000)">
            <g id="messageicon备份-20" transform="translate(22.000000, 105.000000)">
                <g id="Group-7-Copy" transform="translate(3.000000, 3.000000)">
                    <path d="M4.17525773,25.5986491 L3.01546392,27.9646285 C2.67525773,28.3666904 2.59793814,28.9388553 2.82989691,29.4182368 C3.06185567,29.8976182 3.54123711,30.2068966 4.06701031,30.2068966 L15,30.2068966 C23.2731959,30.2068966 30,23.4800924 30,15.2068966 C30,6.93370068 23.2731959,0.206896552 15,0.206896552 C6.72680412,0.206896552 0,6.93370068 0,15.2068966 C0,19.0728759 1.48453608,22.7996801 4.17525773,25.5986491 Z" id="形状" fill="#FFFFFF"></path>
                    <rect id="矩形" fill="#0099FF" x="9" y="16.7068966" width="13.5" height="2" rx="1"></rect>
                    <rect id="矩形备份-41" fill="#0099FF" x="9" y="10.7068966" width="7.5" height="2" rx="1"></rect>
                </g>
            </g>
        </g>
    </g>
</svg>