<svg width="85" height="78" viewBox="0 0 85 78" fill="none" xmlns="http://www.w3.org/2000/svg">
<path d="M66.4263 40.3517C71.3137 40.3582 75.9985 42.3055 79.4504 45.7653C82.9024 49.2252 84.839 53.9143 84.8343 58.8017C84.8343 68.993 76.5931 77.2552 66.4263 77.2552C61.5396 77.2478 56.8557 75.3001 53.4045 71.8404C49.9533 68.3806 48.0172 63.692 48.0219 58.8052C48.0219 48.614 56.2631 40.3517 66.4263 40.3517ZM68.4114 65.9191H64.3363V70.1203H68.4114V65.9191ZM74.6395 0.234375C77.6434 0.234375 80.066 2.67804 80.066 5.67485V39.0459C76.0612 36.2565 71.2963 34.7643 66.4158 34.7712C61.8212 34.7662 57.3229 36.0889 53.4623 38.5802L49.1142 34.3301C49.0342 34.2501 48.9392 34.1866 48.8347 34.1433C48.7302 34.1 48.6181 34.0777 48.505 34.0777C48.3918 34.0777 48.2798 34.1 48.1753 34.1433C48.0708 34.1866 47.9758 34.2501 47.8958 34.3301L30.7587 51.1031C30.6693 51.1901 30.5624 51.257 30.4451 51.2993C30.3278 51.3416 30.2027 51.3583 30.0784 51.3484C29.9541 51.3384 29.8334 51.302 29.7243 51.2416C29.6152 51.1812 29.5202 51.0982 29.4458 50.9981L21.8523 40.7753C21.7719 40.6661 21.667 40.5772 21.546 40.516C21.425 40.4548 21.2912 40.4228 21.1556 40.4228C21.02 40.4228 20.8862 40.4548 20.7652 40.516C20.6442 40.5772 20.5392 40.6661 20.4589 40.7753L8.91628 56.3195C8.81857 56.4498 8.75915 56.6048 8.74468 56.767C8.73022 56.9292 8.76129 57.0922 8.83441 57.2377C8.90752 57.3832 9.01978 57.5054 9.15856 57.5906C9.29734 57.6758 9.45713 57.7206 9.61997 57.7199H42.4659C42.4553 58.0875 42.4448 58.4551 42.4448 58.8227C42.4448 61.2349 42.8019 63.5595 43.4636 65.7616H6.24155C3.23774 65.7616 0.811584 63.3179 0.811584 60.3176V5.67485C0.811584 2.66403 3.24824 0.234375 6.23805 0.234375H74.6395ZM68.6424 47.4972H64.2312L64.7669 64.0881V64.1932H67.9808L68.6459 47.4972H68.6424ZM21.4252 12.9428C19.5826 13.0007 17.8348 13.7734 16.5519 15.0972C15.269 16.4211 14.5516 18.1922 14.5516 20.0357C14.5516 21.8792 15.269 23.6504 16.5519 24.9742C17.8348 26.2981 19.5826 27.0708 21.4252 27.1287C23.3036 27.1249 25.1037 26.3759 26.4303 25.046C27.7569 23.7161 28.5015 21.9141 28.5006 20.0357C28.5024 18.1567 27.7583 16.3538 26.4316 15.0232C25.1049 13.6925 23.3042 12.943 21.4252 12.9393V12.9428Z" fill="#CFD8ED"/>
</svg>
