<svg width="59" height="59" viewBox="0 0 59 59" fill="none" xmlns="http://www.w3.org/2000/svg">
<circle cx="29.2119" cy="29.8359" r="29" fill="#0099FF"/>
<path opacity="0.9" d="M32.5665 37.1232C32.5665 37.7719 32.8522 38.3434 33.4237 38.8376C33.9951 39.3318 34.7133 39.8029 35.5783 40.2508C36.4432 40.6987 37.3853 41.1235 38.4047 41.525C39.4241 41.9266 40.3662 42.3668 41.2311 42.8456C42.096 43.3244 42.8142 43.8495 43.3857 44.421C43.9572 44.9924 44.2429 45.6643 44.2429 46.4365C44.2429 46.9617 43.8104 47.4636 42.9455 47.9424C42.0806 48.4212 40.9377 48.8614 39.5167 49.263C38.0958 49.6645 36.4586 49.9812 34.6052 50.2128C32.7518 50.4445 30.8521 50.5603 28.906 50.5603C26.6819 50.5603 24.7127 50.4445 22.9983 50.2128C21.2839 49.9812 19.8475 49.6723 18.6892 49.2861C17.5308 48.9 16.6504 48.4598 16.0481 47.9656C15.4457 47.4713 15.1445 46.9771 15.1445 46.4829C15.1445 45.7106 15.4303 45.0388 16.0017 44.4673C16.5732 43.8958 17.2914 43.3784 18.1563 42.9151C19.0212 42.4517 19.9556 42.027 20.9596 41.6409C21.9635 41.2547 22.8979 40.8454 23.7628 40.413C24.6278 39.9805 25.3459 39.5095 25.9174 38.9998C26.4889 38.4901 26.7746 37.88 26.7746 37.1695C26.7746 36.4591 26.6279 35.7949 26.3344 35.1771C26.041 34.5593 25.6703 33.9338 25.2224 33.3006C24.7745 32.6673 24.288 31.98 23.7628 31.2387C23.2377 30.4973 22.7512 29.6633 22.3033 28.7366C21.8554 27.8099 21.4847 26.7442 21.1912 25.5395C20.8978 24.3348 20.7511 22.9447 20.7511 21.3693C20.7511 17.9405 21.392 15.2145 22.674 13.1912C23.9559 11.1679 25.9406 10.1562 28.628 10.1562C30.883 10.1562 32.6591 10.496 33.9565 11.1756C35.2539 11.8552 36.2347 12.7278 36.8988 13.7935C37.5629 14.8592 37.9799 16.0331 38.1498 17.315C38.3197 18.5969 38.4047 19.8557 38.4047 21.0913C38.4047 22.7594 38.258 24.1957 37.9645 25.4005C37.671 26.6052 37.3081 27.6554 36.8756 28.5512C36.4432 29.447 35.9798 30.2425 35.4856 30.9375C34.9913 31.6325 34.528 32.2966 34.0955 32.9299C33.6631 33.5631 33.3001 34.2118 33.0067 34.876C32.7132 35.5401 32.5665 36.2892 32.5665 37.1232Z" fill="white"/>
</svg>
